<svg width="32" height="20" viewBox="0 0 32 20" fill="none" xmlns="http://www.w3.org/2000/svg">
<path id="Vector" d="M30.75 9H29.5V4.75C29.5 4.28587 29.3156 3.84075 28.9874 3.51256C28.6592 3.18437 28.2141 3 27.75 3H25.5V1.75C25.5 1.28587 25.3156 0.840752 24.9874 0.512563C24.6592 0.184375 24.2141 0 23.75 0H20.75C20.2859 0 19.8408 0.184375 19.5126 0.512563C19.1844 0.840752 19 1.28587 19 1.75V9H12.5V1.75C12.5 1.28587 12.3156 0.840752 11.9874 0.512563C11.6592 0.184375 11.2141 0 10.75 0H7.75C7.28587 0 6.84075 0.184375 6.51256 0.512563C6.18437 0.840752 6 1.28587 6 1.75V3H3.75C3.28587 3 2.84075 3.18437 2.51256 3.51256C2.18437 3.84075 2 4.28587 2 4.75V9H0.75C0.551088 9 0.360322 9.07902 0.21967 9.21967C0.0790176 9.36032 0 9.55109 0 9.75C0 9.94891 0.0790176 10.1397 0.21967 10.2803C0.360322 10.421 0.551088 10.5 0.75 10.5H2V14.75C2 15.2141 2.18437 15.6592 2.51256 15.9874C2.84075 16.3156 3.28587 16.5 3.75 16.5H6V17.75C6 18.2141 6.18437 18.6592 6.51256 18.9874C6.84075 19.3156 7.28587 19.5 7.75 19.5H10.75C11.2141 19.5 11.6592 19.3156 11.9874 18.9874C12.3156 18.6592 12.5 18.2141 12.5 17.75V10.5H19V17.75C19 18.2141 19.1844 18.6592 19.5126 18.9874C19.8408 19.3156 20.2859 19.5 20.75 19.5H23.75C24.2141 19.5 24.6592 19.3156 24.9874 18.9874C25.3156 18.6592 25.5 18.2141 25.5 17.75V16.5H27.75C28.2141 16.5 28.6592 16.3156 28.9874 15.9874C29.3156 15.6592 29.5 15.2141 29.5 14.75V10.5H30.75C30.9489 10.5 31.1397 10.421 31.2803 10.2803C31.421 10.1397 31.5 9.94891 31.5 9.75C31.5 9.55109 31.421 9.36032 31.2803 9.21967C31.1397 9.07902 30.9489 9 30.75 9ZM3.75 15C3.6837 15 3.62011 14.9737 3.57322 14.9268C3.52634 14.8799 3.5 14.8163 3.5 14.75V4.75C3.5 4.6837 3.52634 4.62011 3.57322 4.57322C3.62011 4.52634 3.6837 4.5 3.75 4.5H6V15H3.75ZM11 17.75C11 17.8163 10.9737 17.8799 10.9268 17.9268C10.8799 17.9737 10.8163 18 10.75 18H7.75C7.6837 18 7.62011 17.9737 7.57322 17.9268C7.52634 17.8799 7.5 17.8163 7.5 17.75V1.75C7.5 1.6837 7.52634 1.62011 7.57322 1.57322C7.62011 1.52634 7.6837 1.5 7.75 1.5H10.75C10.8163 1.5 10.8799 1.52634 10.9268 1.57322C10.9737 1.62011 11 1.6837 11 1.75V17.75ZM24 17.75C24 17.8163 23.9737 17.8799 23.9268 17.9268C23.8799 17.9737 23.8163 18 23.75 18H20.75C20.6837 18 20.6201 17.9737 20.5732 17.9268C20.5263 17.8799 20.5 17.8163 20.5 17.75V1.75C20.5 1.6837 20.5263 1.62011 20.5732 1.57322C20.6201 1.52634 20.6837 1.5 20.75 1.5H23.75C23.8163 1.5 23.8799 1.52634 23.9268 1.57322C23.9737 1.62011 24 1.6837 24 1.75V17.75ZM28 14.75C28 14.8163 27.9737 14.8799 27.9268 14.9268C27.8799 14.9737 27.8163 15 27.75 15H25.5V4.5H27.75C27.8163 4.5 27.8799 4.52634 27.9268 4.57322C27.9737 4.62011 28 4.6837 28 4.75V14.75Z" fill="white"/>
</svg>
