<svg width="26" height="27" viewBox="0 0 26 27" fill="none" xmlns="http://www.w3.org/2000/svg">
<path id="Vector" d="M12.739 7.5C13.4807 7.5 14.2057 7.28007 14.8224 6.86801C15.4391 6.45596 15.9197 5.87029 16.2036 5.18506C16.4874 4.49984 16.5616 3.74584 16.417 3.01841C16.2723 2.29098 15.9151 1.6228 15.3907 1.09835C14.8662 0.573904 14.198 0.216751 13.4706 0.0720569C12.7432 -0.0726377 11.9892 0.00162482 11.3039 0.285453C10.6187 0.569282 10.033 1.04993 9.62099 1.66661C9.20894 2.2833 8.98901 3.00832 8.98901 3.75C8.98901 4.74456 9.38409 5.69839 10.0874 6.40165C10.7906 7.10491 11.7444 7.5 12.739 7.5ZM12.739 1.5C13.184 1.5 13.619 1.63196 13.989 1.87919C14.359 2.12643 14.6474 2.47783 14.8177 2.88896C14.988 3.3001 15.0326 3.7525 14.9458 4.18895C14.859 4.62541 14.6447 5.02632 14.33 5.34099C14.0153 5.65566 13.6144 5.86995 13.178 5.95677C12.7415 6.04359 12.2891 5.99903 11.878 5.82873C11.4668 5.65843 11.1154 5.37005 10.8682 5.00003C10.621 4.63002 10.489 4.19501 10.489 3.75C10.489 3.15326 10.7261 2.58097 11.148 2.15901C11.57 1.73705 12.1423 1.5 12.739 1.5ZM25.3815 14.1363C25.278 14.3055 25.1116 14.4269 24.9188 14.4738C24.726 14.5206 24.5224 14.4891 24.3528 14.3863C24.3065 14.36 19.7915 11.7075 13.489 11.5113V16.4625L21.299 25.25C21.4316 25.3992 21.4995 25.5949 21.4878 25.7942C21.4761 25.9935 21.3857 26.1799 21.2365 26.3125C21.0873 26.4451 20.8916 26.513 20.6923 26.5013C20.4931 26.4896 20.3066 26.3992 20.174 26.25L12.739 17.875L5.29901 26.25C5.23335 26.3239 5.15378 26.3841 5.06485 26.4272C4.97592 26.4703 4.87936 26.4955 4.7807 26.5013C4.58144 26.513 4.38569 26.4451 4.23651 26.3125C4.08732 26.1799 3.99693 25.9935 3.98521 25.7942C3.97348 25.5949 4.0414 25.3992 4.17401 25.25L11.989 16.465V11.5138C5.68651 11.7138 1.17026 14.3663 1.12401 14.3888C0.953626 14.4868 0.751572 14.514 0.561328 14.4645C0.371083 14.4151 0.207856 14.2929 0.106772 14.1243C0.00568812 13.9558 -0.0251722 13.7542 0.020832 13.5631C0.0668362 13.372 0.186028 13.2066 0.352756 13.1025C0.564006 12.98 5.61401 10 12.739 10C19.864 10 24.9128 12.98 25.1253 13.1075C25.2956 13.21 25.4183 13.3759 25.4663 13.5688C25.5144 13.7617 25.4839 13.9658 25.3815 14.1363Z" fill="white"/>
</svg>
