<svg width="22" height="26" viewBox="0 0 22 26" fill="none" xmlns="http://www.w3.org/2000/svg">
<path id="Vector" d="M20.67 11.5238L2.66003 0.507517C2.39435 0.344563 2.08998 0.255518 1.77837 0.249585C1.46676 0.243651 1.15921 0.321045 0.887529 0.473767C0.617294 0.622171 0.392171 0.840823 0.235951 1.10662C0.0797319 1.37241 -0.00178047 1.67547 2.94987e-05 1.98377V24.0163C-0.00178047 24.3246 0.0797319 24.6276 0.235951 24.8934C0.392171 25.1592 0.617294 25.3779 0.887529 25.5263C1.15921 25.679 1.46676 25.7564 1.77837 25.7505C2.08998 25.7445 2.39435 25.6555 2.66003 25.4925L20.67 14.4763C20.9235 14.3222 21.1331 14.1054 21.2785 13.8469C21.424 13.5883 21.5003 13.2967 21.5003 13C21.5003 12.7034 21.424 12.4117 21.2785 12.1531C21.1331 11.8946 20.9235 11.6778 20.67 11.5238ZM19.8875 13.1963L1.87503 24.2125C1.83615 24.2359 1.79164 24.2482 1.74628 24.2482C1.70092 24.2482 1.65641 24.2359 1.61753 24.2125C1.57985 24.1942 1.54813 24.1655 1.52602 24.1299C1.5039 24.0943 1.49229 24.0532 1.49253 24.0113V1.98377C1.49229 1.94185 1.5039 1.90073 1.52602 1.86512C1.54813 1.82952 1.57985 1.80088 1.61753 1.78252C1.65797 1.75997 1.70374 1.74874 1.75003 1.75002C1.7944 1.75161 1.83754 1.76498 1.87503 1.78877L19.8875 12.8038C19.9218 12.8238 19.9501 12.8525 19.9699 12.8869C19.9896 12.9214 20 12.9603 20 13C20 13.0397 19.9896 13.0787 19.9699 13.1131C19.9501 13.1475 19.9218 13.1762 19.8875 13.1963Z" fill="white"/>
</svg>
