<svg width="30" height="28" viewBox="0 0 30 28" fill="none" xmlns="http://www.w3.org/2000/svg">
<path id="Vector" d="M29.5 13.75C29.5 13.9489 29.421 14.1397 29.2803 14.2803C29.1397 14.421 28.9489 14.5 28.75 14.5H26.4513C26.2675 15.8825 25.5883 17.1513 24.5398 18.0709C23.4912 18.9904 22.1446 19.4982 20.75 19.5H15.5V23H18.75C19.7446 23 20.6984 23.3951 21.4017 24.0983C22.1049 24.8016 22.5 25.7554 22.5 26.75C22.5 26.9489 22.421 27.1397 22.2803 27.2803C22.1397 27.421 21.9489 27.5 21.75 27.5C21.5511 27.5 21.3603 27.421 21.2197 27.2803C21.079 27.1397 21 26.9489 21 26.75C21 26.1533 20.7629 25.581 20.341 25.159C19.919 24.7371 19.3467 24.5 18.75 24.5H15.5V26.75C15.5 26.9489 15.421 27.1397 15.2803 27.2803C15.1397 27.421 14.9489 27.5 14.75 27.5C14.5511 27.5 14.3603 27.421 14.2197 27.2803C14.079 27.1397 14 26.9489 14 26.75V24.5H10.75C10.1533 24.5 9.58097 24.7371 9.15901 25.159C8.73705 25.581 8.5 26.1533 8.5 26.75C8.5 26.9489 8.42098 27.1397 8.28033 27.2803C8.13968 27.421 7.94891 27.5 7.75 27.5C7.55109 27.5 7.36032 27.421 7.21967 27.2803C7.07902 27.1397 7 26.9489 7 26.75C7 25.7554 7.39509 24.8016 8.09835 24.0983C8.80161 23.3951 9.75544 23 10.75 23H14V19.5H8.75C7.35537 19.4982 6.00876 18.9904 4.96023 18.0709C3.9117 17.1513 3.2325 15.8825 3.04875 14.5H0.75C0.551088 14.5 0.360322 14.421 0.21967 14.2803C0.0790177 14.1397 0 13.9489 0 13.75C0 13.5511 0.0790177 13.3603 0.21967 13.2197C0.360322 13.079 0.551088 13 0.75 13H3.75C3.94891 13 4.13968 13.079 4.28033 13.2197C4.42098 13.3603 4.5 13.5511 4.5 13.75C4.5 14.8772 4.94777 15.9582 5.7448 16.7552C6.54183 17.5522 7.62283 18 8.75 18H20.75C21.8772 18 22.9582 17.5522 23.7552 16.7552C24.5522 15.9582 25 14.8772 25 13.75C25 13.5511 25.079 13.3603 25.2197 13.2197C25.3603 13.079 25.5511 13 25.75 13H28.75C28.9489 13 29.1397 13.079 29.2803 13.2197C29.421 13.3603 29.5 13.5511 29.5 13.75ZM7.42875 14.8962C7.26402 14.7067 7.14204 14.4838 7.07107 14.2429C7.00011 14.002 6.98184 13.7486 7.0175 13.5L8.7325 1.5C8.79435 1.08418 9.00309 0.704269 9.32091 0.429098C9.63873 0.153927 10.0446 0.00170049 10.465 0H19.035C19.4554 0.00170049 19.8613 0.153927 20.1791 0.429098C20.4969 0.704269 20.7057 1.08418 20.7675 1.5L22.4825 13.5C22.5184 13.7484 22.5004 14.0016 22.4297 14.2424C22.3591 14.4833 22.2375 14.7061 22.0732 14.8958C21.9088 15.0855 21.7056 15.2376 21.4773 15.3419C21.249 15.4461 21.001 15.5001 20.75 15.5H8.75C8.49938 15.4998 8.25172 15.4459 8.02377 15.3417C7.79582 15.2375 7.59291 15.0856 7.42875 14.8962ZM8.56125 13.9137C8.5847 13.9408 8.61369 13.9625 8.64625 13.9774C8.67882 13.9923 8.7142 14 8.75 14H20.75C20.7858 14 20.8212 13.9923 20.8537 13.9774C20.8863 13.9625 20.9153 13.9408 20.9387 13.9137C20.9622 13.8867 20.9796 13.855 20.9897 13.8207C20.9998 13.7865 21.0025 13.7504 20.9975 13.715L19.2825 1.715C19.274 1.65493 19.244 1.6 19.198 1.56044C19.152 1.52088 19.0932 1.4994 19.0325 1.5H10.465C10.4043 1.4994 10.3455 1.52088 10.2995 1.56044C10.2535 1.6 10.2235 1.65493 10.215 1.715L8.5 13.715C8.49535 13.7506 8.49841 13.7868 8.50898 13.821C8.51955 13.8553 8.53737 13.887 8.56125 13.9137Z" fill="white"/>
</svg>
