<svg width="19" height="19" viewBox="0 0 19 19" fill="none" xmlns="http://www.w3.org/2000/svg">
<path id="Vector" d="M12.354 9.92851L8.31149 13.9711C8.19654 14.0782 8.0445 14.1365 7.88741 14.1337C7.73031 14.1309 7.58043 14.0673 7.46933 13.9562C7.35823 13.8451 7.29459 13.6952 7.29182 13.5381C7.28904 13.381 7.34736 13.229 7.45447 13.114L10.4611 10.1064H0.606383C0.44556 10.1064 0.291324 10.0425 0.177605 9.92878C0.0638865 9.81506 0 9.66082 0 9.5C0 9.33918 0.0638865 9.18494 0.177605 9.07122C0.291324 8.9575 0.44556 8.89362 0.606383 8.89362H10.4611L7.45447 5.88596C7.34736 5.77101 7.28904 5.61897 7.29182 5.46188C7.29459 5.30478 7.35823 5.1549 7.46933 5.0438C7.58043 4.9327 7.73031 4.86906 7.88741 4.86628C8.0445 4.86351 8.19654 4.92182 8.31149 5.02894L12.354 9.07149C12.4676 9.18519 12.5314 9.33931 12.5314 9.5C12.5314 9.66069 12.4676 9.81481 12.354 9.92851ZM17.5851 0H11.9255C11.7647 0 11.6105 0.0638865 11.4968 0.177605C11.383 0.291324 11.3191 0.44556 11.3191 0.606383C11.3191 0.767206 11.383 0.921442 11.4968 1.03516C11.6105 1.14888 11.7647 1.21277 11.9255 1.21277H17.5851C17.6387 1.21277 17.6901 1.23406 17.728 1.27197C17.7659 1.30987 17.7872 1.36129 17.7872 1.41489V17.5851C17.7872 17.6387 17.7659 17.6901 17.728 17.728C17.6901 17.7659 17.6387 17.7872 17.5851 17.7872H11.9255C11.7647 17.7872 11.6105 17.8511 11.4968 17.9648C11.383 18.0786 11.3191 18.2328 11.3191 18.3936C11.3191 18.5544 11.383 18.7087 11.4968 18.8224C11.6105 18.9361 11.7647 19 11.9255 19H17.5851C17.9604 19 18.3202 18.8509 18.5856 18.5856C18.8509 18.3202 19 17.9604 19 17.5851V1.41489C19 1.03964 18.8509 0.679757 18.5856 0.414413C18.3202 0.149069 17.9604 0 17.5851 0Z" fill="#141D37"/>
</svg>
