<svg width="17" height="16" viewBox="0 0 17 16" fill="none" xmlns="http://www.w3.org/2000/svg">
<path id="Vector" d="M16.9221 15.2484C15.6062 13.0209 13.5404 11.4579 11.1401 10.795C12.3071 10.2139 13.2403 9.26468 13.7892 8.10043C14.3381 6.93618 14.4708 5.62475 14.1658 4.3776C13.8608 3.13046 13.1359 2.02029 12.108 1.2261C11.0801 0.431916 9.80913 0 8.5 0C7.19087 0 5.91989 0.431916 4.892 1.2261C3.86412 2.02029 3.13923 3.13046 2.83422 4.3776C2.52922 5.62475 2.66187 6.93618 3.2108 8.10043C3.75973 9.26468 4.69293 10.2139 5.85994 10.795C3.45958 11.4571 1.39381 13.0201 0.0779454 15.2484C0.0418133 15.304 0.0175519 15.3663 0.00662095 15.4314C-0.00431004 15.4965 -0.00168468 15.5631 0.0143388 15.6272C0.0303624 15.6913 0.0594529 15.7515 0.0998606 15.8043C0.140268 15.8571 0.191158 15.9013 0.249468 15.9343C0.307779 15.9674 0.372304 15.9885 0.439164 15.9964C0.506023 16.0044 0.573835 15.999 0.638518 15.9806C0.703202 15.9622 0.763422 15.9312 0.815554 15.8895C0.867687 15.8477 0.910655 15.796 0.941874 15.7376C2.54072 13.0315 5.36555 11.4163 8.5 11.4163C11.6344 11.4163 14.4593 13.0315 16.0581 15.7376C16.0893 15.796 16.1323 15.8477 16.1844 15.8895C16.2366 15.9312 16.2968 15.9622 16.3615 15.9806C16.4262 15.999 16.494 16.0044 16.5608 15.9964C16.6277 15.9885 16.6922 15.9674 16.7505 15.9343C16.8088 15.9013 16.8597 15.8571 16.9001 15.8043C16.9405 15.7515 16.9696 15.6913 16.9857 15.6272C17.0017 15.5631 17.0043 15.4965 16.9934 15.4314C16.9824 15.3663 16.9582 15.304 16.9221 15.2484ZM3.67265 5.70899C3.67265 4.7737 3.95577 3.85942 4.48621 3.08175C5.01664 2.30409 5.77057 1.69797 6.65265 1.34005C7.53474 0.982127 8.50535 0.888479 9.44177 1.07094C10.3782 1.25341 11.2383 1.7038 11.9134 2.36515C12.5886 3.0265 13.0483 3.86911 13.2346 4.78643C13.4209 5.70375 13.3253 6.65458 12.9599 7.51867C12.5945 8.38277 11.9758 9.12132 11.1819 9.64094C10.3881 10.1606 9.45476 10.4379 8.5 10.4379C7.22018 10.4364 5.99322 9.93769 5.08825 9.05117C4.18329 8.16466 3.6742 6.96272 3.67265 5.70899Z" fill="white"/>
</svg>
