<svg width="26" height="26" viewBox="0 0 26 26" fill="none" xmlns="http://www.w3.org/2000/svg">
<path id="Vector" d="M0.300003 12.3544C0.459133 12.4737 0.659156 12.525 0.856069 12.4968C1.05298 12.4687 1.23066 12.3635 1.35 12.2044C1.97875 11.3661 2.79404 10.6856 3.73131 10.217C4.66859 9.74836 5.7021 9.50438 6.75 9.50438C7.79791 9.50438 8.83142 9.74836 9.76869 10.217C10.706 10.6856 11.5213 11.3661 12.15 12.2044C12.2695 12.3633 12.4473 12.4683 12.6442 12.4962C12.8411 12.5241 13.041 12.4726 13.2 12.3531C13.2568 12.3113 13.307 12.2612 13.3488 12.2044C13.9775 11.3661 14.7928 10.6856 15.7301 10.217C16.6673 9.74836 17.7008 9.50438 18.7488 9.50438C19.7967 9.50438 20.8302 9.74836 21.7674 10.217C22.7047 10.6856 23.52 11.3661 24.1488 12.2044C24.2683 12.3635 24.4461 12.4686 24.6431 12.4967C24.8402 12.5247 25.0402 12.4733 25.1994 12.3538C25.3585 12.2342 25.4636 12.0564 25.4917 11.8594C25.5197 11.6623 25.4683 11.4623 25.3488 11.3031C24.4045 10.0385 23.1161 9.07249 21.6375 8.52063C22.4256 7.91685 23.0047 7.08132 23.2934 6.13144C23.5822 5.18157 23.566 4.1651 23.2473 3.22487C22.9285 2.28465 22.3231 1.46794 21.5163 0.889504C20.7094 0.311073 19.7415 0 18.7488 0C17.756 0 16.7881 0.311073 15.9812 0.889504C15.1744 1.46794 14.569 2.28465 14.2503 3.22487C13.9315 4.1651 13.9153 5.18157 14.2041 6.13144C14.4928 7.08132 15.0719 7.91685 15.86 8.52063C14.6772 8.96136 13.6126 9.67034 12.75 10.5919C11.887 9.67018 10.822 8.96119 9.63875 8.52063C10.4268 7.91685 11.0059 7.08132 11.2947 6.13144C11.5834 5.18157 11.5673 4.1651 11.2485 3.22487C10.9297 2.28465 10.3244 1.46794 9.51751 0.889504C8.71063 0.311073 7.74279 0 6.75 0C5.75721 0 4.78938 0.311073 3.9825 0.889504C3.17562 1.46794 2.57027 2.28465 2.2515 3.22487C1.93274 4.1651 1.91659 5.18157 2.20532 6.13144C2.49406 7.08132 3.07316 7.91685 3.86125 8.52063C2.38231 9.07252 1.09379 10.039 0.150003 11.3044C0.0306558 11.4635 -0.0205895 11.6635 0.00754093 11.8604C0.0356714 12.0574 0.140873 12.235 0.300003 12.3544ZM18.75 1.50438C19.3928 1.50438 20.0211 1.69499 20.5556 2.0521C21.0901 2.40921 21.5066 2.9168 21.7526 3.51066C21.9986 4.10452 22.063 4.75798 21.9376 5.38842C21.8122 6.01886 21.5026 6.59795 21.0481 7.05247C20.5936 7.50699 20.0145 7.81653 19.384 7.94193C18.7536 8.06733 18.1001 8.00297 17.5063 7.75698C16.9124 7.511 16.4048 7.09444 16.0477 6.55998C15.6906 6.02552 15.5 5.39717 15.5 4.75438C15.5 3.89242 15.8424 3.06577 16.4519 2.45628C17.0614 1.84679 17.8881 1.50438 18.75 1.50438ZM6.75 1.50438C7.39279 1.50438 8.02115 1.69499 8.55561 2.0521C9.09007 2.40921 9.50663 2.9168 9.75261 3.51066C9.9986 4.10452 10.063 4.75798 9.93756 5.38842C9.81215 6.01886 9.50262 6.59795 9.0481 7.05247C8.59358 7.50699 8.01448 7.81653 7.38405 7.94193C6.75361 8.06733 6.10014 8.00297 5.50628 7.75698C4.91242 7.511 4.40484 7.09444 4.04773 6.55998C3.69061 6.02552 3.5 5.39717 3.5 4.75438C3.5 3.89242 3.84241 3.06577 4.45191 2.45628C5.0614 1.84679 5.88805 1.50438 6.75 1.50438ZM21.6388 21.5206C22.4268 20.9169 23.0059 20.0813 23.2947 19.1314C23.5834 18.1816 23.5673 17.1651 23.2485 16.2249C22.9297 15.2846 22.3244 14.4679 21.5175 13.8895C20.7106 13.3111 19.7428 13 18.75 13C17.7572 13 16.7894 13.3111 15.9825 13.8895C15.1756 14.4679 14.5703 15.2846 14.2515 16.2249C13.9327 17.1651 13.9166 18.1816 14.2053 19.1314C14.4941 20.0813 15.0732 20.9169 15.8613 21.5206C14.678 21.9612 13.613 22.6702 12.75 23.5919C11.887 22.6702 10.822 21.9612 9.63875 21.5206C10.4268 20.9169 11.0059 20.0813 11.2947 19.1314C11.5834 18.1816 11.5673 17.1651 11.2485 16.2249C10.9297 15.2846 10.3244 14.4679 9.51751 13.8895C8.71063 13.3111 7.74279 13 6.75 13C5.75721 13 4.78938 13.3111 3.9825 13.8895C3.17562 14.4679 2.57027 15.2846 2.2515 16.2249C1.93274 17.1651 1.91659 18.1816 2.20532 19.1314C2.49406 20.0813 3.07316 20.9169 3.86125 21.5206C2.38231 22.0725 1.09379 23.039 0.150003 24.3044C0.0909083 24.3832 0.0479115 24.4728 0.0234678 24.5682C-0.000975925 24.6637 -0.00638785 24.7629 0.00754093 24.8604C0.0214697 24.9579 0.0544664 25.0517 0.104647 25.1365C0.154828 25.2212 0.22121 25.2953 0.300003 25.3544C0.378796 25.4135 0.468457 25.4565 0.563867 25.4809C0.659277 25.5054 0.758568 25.5108 0.856069 25.4968C0.953571 25.4829 1.04737 25.4499 1.13212 25.3997C1.21687 25.3496 1.29091 25.2832 1.35 25.2044C1.97875 24.3661 2.79404 23.6856 3.73131 23.217C4.66859 22.7484 5.7021 22.5044 6.75 22.5044C7.79791 22.5044 8.83142 22.7484 9.76869 23.217C10.706 23.6856 11.5213 24.3661 12.15 25.2044C12.2695 25.3633 12.4473 25.4683 12.6442 25.4962C12.8411 25.5241 13.041 25.4726 13.2 25.3531C13.2568 25.3113 13.307 25.2612 13.3488 25.2044C13.9775 24.3661 14.7928 23.6856 15.7301 23.217C16.6673 22.7484 17.7008 22.5044 18.7488 22.5044C19.7967 22.5044 20.8302 22.7484 21.7674 23.217C22.7047 23.6856 23.52 24.3661 24.1488 25.2044C24.2683 25.3635 24.4461 25.4686 24.6431 25.4967C24.8402 25.5247 25.0402 25.4733 25.1994 25.3538C25.3585 25.2342 25.4636 25.0564 25.4917 24.8594C25.5197 24.6623 25.4683 24.4623 25.3488 24.3031C24.4049 23.0387 23.1169 22.0727 21.6388 21.5206ZM6.75 14.5044C7.39279 14.5044 8.02115 14.695 8.55561 15.0521C9.09007 15.4092 9.50663 15.9168 9.75261 16.5107C9.9986 17.1045 10.063 17.758 9.93756 18.3884C9.81215 19.0189 9.50262 19.598 9.0481 20.0525C8.59358 20.507 8.01448 20.8165 7.38405 20.9419C6.75361 21.0673 6.10014 21.003 5.50628 20.757C4.91242 20.511 4.40484 20.0944 4.04773 19.56C3.69061 19.0255 3.5 18.3972 3.5 17.7544C3.5 16.8924 3.84241 16.0658 4.45191 15.4563C5.0614 14.8468 5.88805 14.5044 6.75 14.5044ZM18.75 14.5044C19.3928 14.5044 20.0211 14.695 20.5556 15.0521C21.0901 15.4092 21.5066 15.9168 21.7526 16.5107C21.9986 17.1045 22.063 17.758 21.9376 18.3884C21.8122 19.0189 21.5026 19.598 21.0481 20.0525C20.5936 20.507 20.0145 20.8165 19.384 20.9419C18.7536 21.0673 18.1001 21.003 17.5063 20.757C16.9124 20.511 16.4048 20.0944 16.0477 19.56C15.6906 19.0255 15.5 18.3972 15.5 17.7544C15.5 16.8924 15.8424 16.0658 16.4519 15.4563C17.0614 14.8468 17.8881 14.5044 18.75 14.5044Z" fill="white"/>
</svg>
